<svg viewBox="0 0 530 530" fill="none" xmlns="http://www.w3.org/2000/svg">
  <style>
    .backfill { fill: #FFFFFF }
    .flower { fill: #F1A56C }
    .marks { fill: #8F6037 }

    @media (prefers-color-scheme: dark) {
    .backfill { fill: #221306ff }
    .flower { fill: #f0d9c7ff }
    .marks { fill: #ff9538ff }
    }
  </style>
  <path class="backfill" d="M250 530.5H280V520H290V510H300V500H310V490H390V390H490V310H500V300H510V290H520V280H530V250H520V240L510 240V230H500V220H490V140H390V40H310V30H300V20H290V10H280V0H250V10H240V20H230V30H220V40H140V140H40V220H30V230H20V240H10V250H0V280H10V290H20V300H30V310H40V390H140V490H220V500H230V510H240V520H250V530.5ZM270 20H260V30H250V40H240V50H230V60H240V70H250V80H260V90H270V80H280V70H290V60H300V50H290V40H280V30H270V20ZM270 440H260V450H250V460H240V470H230V480H240V490H250V500H260V510H270V500H280V490H290V480H300V470H290V460H280V450H270V440ZM480 230H470V240H460V250H450V260H440V270H450V280H460V290H470V300H480V290H490V280H500V270H510V260H500V250H490V240H480V230ZM60 230H50V240H40V250H30V260H20V270H30V280H40V290H50V300H60V290H70V280H80V270H90V260H80V250H70V240H60V230ZM260 240H270V250H280V260H290V270H280V280H270V290H260V280H250V270H240V260H250V250H260V240ZM230 290V280H140V290H130V300H120V310H110V320H100V330H90V340H80V350H70V360H60V370H150V360H160V350H170V340H180V330H190V320H200V310H210V300H220V290H230ZM240 230H250V140H240V130H230V120H220V110H210V100H200V90H190V80H180V70H170V60H160V150H170V160H180V170H190V180H200V190H210V200H220V210H230V220H240V230ZM300 240V250L390 250V240H400V230H410V220H420V210H430V200H440V190H450V180L460 180V170L470 170V160L380 160V170H370V180H360V190H350V200H340V210H330V220H320V230H310V240H300ZM290 300H280V390H290V400H300V410H310V420H320V430H330V440H340V450H350V460H360V470H370V380H360V370H350V360H340V350H330V340H320V330H310V320H300V310H290V300ZM230 240V250H140V240H130V230H120V220H110V210H100V200H90V190H80V180H70V170H60V160H150V170H160V180H170V190H180V200H190V210H200V220H210V230H220V240H230ZM290 230H280V140H290V130H300V120H310V110H320V100H330V90H340V80H350V70H360V60H370V150H360V160H350V170H340V180H330V190H320V200H310V210H300V220H290V230ZM300 290V280H390V290H400V300H410V310H420V320H430V330H440V340H450V350H460V360H470V370H380V360H370V350H360V340H350V330H340V320H330V310H320V300H310V290H300ZM240 300H250L250 390H240V400H230V410H220V420H210V430H200V440H190V450H180V460H170V470H160L160 380H170V370H180V360H190V350H200V340H210V330H220V320H230V310H240V300Z"/>
  
  <g class="marks"> 
    <path d="M270 20H260V30H250V40H240V50H230V60H240V70H250V80H260V90H270V80H280V70H290V60H300V50H290V40H280V30H270V20Z"/>
    <path d="M270 440H260V450H250V460H240V470H230V480H240V490H250V500H260V510H270V500H280V490H290V480H300V470H290V460H280V450H270V440Z"/>
    <path d="M480 230H470V240H460V250H450V260H440V270H450V280H460V290H470V300H480V290H490V280H500V270H510V260H500V250H490V240H480V230Z"/>
    <path d="M60 230H50V240H40V250H30V260H20V270H30V280H40V290H50V300H60V290H70V280H80V270H90V260H80V250H70V240H60V230Z"/>
    <path d="M270 240H260V250H250V260H240V270H250V280H260V290H270V280H280V270H290V260H280V250H270V240ZM270 250H260V260H250V270H260V280H270V270H280V260H270V250Z"/>
  </g>

  <g class="flower">
    <path d="M230 290V280H140V290H130V300H120V310H110V320H100V330H90V340H80V350H70V360H60V370H150V360H160V350H170V340H180V330H190V320H200V310H210V300H220V290H230Z"/>
    <path d="M240 230H250V140H240V130H230V120H220V110H210V100H200V90H190V80H180V70H170V60H160V150H170V160H180V170H190V180H200V190H210V200H220V210H230V220H240V230Z"/>
    <path d="M300 240V250L390 250V240H400V230H410V220H420V210H430V200H440V190H450V180L460 180V170L470 170V160L380 160V170H370V180H360V190H350V200H340V210H330V220H320V230H310V240H300Z"/>
    <path d="M290 300H280V390H290V400H300V410H310V420H320V430H330V440H340V450H350V460H360V470H370V380H360V370H350V360H340V350H330V340H320V330H310V320H300V310H290V300Z"/>
    <path d="M230 240V250H140V240H130V230H120V220H110V210H100V200H90V190H80V180H70V170H60V160H150V170H160V180H170V190H180V200H190V210H200V220H210V230H220V240H230Z"/>
    <path d="M290 230H280V140H290V130H300V120H310V110H320V100H330V90H340V80H350V70H360V60H370V150H360V160H350V170H340V180H330V190H320V200H310V210H300V220H290V230Z"/>
    <path d="M300 290V280H390V290H400V300H410V310H420V320H430V330H440V340H450V350H460V360H470V370H380V360H370V350H360V340H350V330H340V320H330V310H320V300H310V290H300Z"/>
    <path d="M240 300H250L250 390H240V400H230V410H220V420H210V430H200V440H190V450H180V460H170V470H160L160 380H170V370H180V360H190V350H200V340H210V330H220V320H230V310H240V300Z"/>
  </g>
</svg>
