<svg width="490" height="490" viewBox="0 0 490 490" fill="none" xmlns="http://www.w3.org/2000/svg">
<g clip-path="url(#clip0_2026_1125)">
<path d="M250 0H240V10H230V20H220V30H210V40H220V50H230V60H240V70H250V60H260V50H270V40H280V30H270V20H260V10H250V0Z" fill="white"/>
<path d="M250 420H240V430H230V440H220V450H210V460H220V470H230V480H240V490H250V480H260V470H270V460H280V450H270V440H260V430H250V420Z" fill="white"/>
<path d="M460 210H450V220H440V230H430V240H420V250H430V260H440V270H450V280H460V270H470V260H480V250H490V240H480V230H470V220H460V210Z" fill="white"/>
<path d="M40 210H30V220H20V230H10V240H0V250H10V260H20V270H30V280H40V270H50V260H60V250H70V240H60V230H50V220H40V210Z" fill="white"/>
<path fill-rule="evenodd" clip-rule="evenodd" d="M250 220H240V230H230V240H220V250H230V260H240V270H250V260H260V250H270V240H260V230H250V220ZM250 230H240V240H230V250H240V260H250V250H260V240H250V230Z" fill="white"/>
<path d="M210 270V260H120V270H110V280H100V290H90V300H80V310H70V320H60V330H50V340H40V350H130V340H140V330H150V320H160V310H170V300H180V290H190V280H200V270H210Z" fill="#FFF2E8"/>
<path d="M220 210H230V120L220 120V110H210V100H200V90H190L190 80L180 80V70H170L170 60L160 60V50L150 50V40L140 40L140 130H150V140H160V150H170L170 160H180V170H190L190 180H200V190H210V200H220V210Z" fill="#FFF2E8"/>
<path d="M280 220L280 230L370 230V220H380V210H390V200H400V190H410V180H420V170H430V160L440 160V150L450 150L450 140L360 140V150L350 150V160L340 160L340 170H330V180H320V190H310L310 200H300V210H290L290 220H280Z" fill="#FFF2E8"/>
<path d="M270 280L260 280L260 370H270L270 380H280V390L290 390L290 400H300V410H310L310 420L320 420V430H330V440H340V450H350L350 360L340 360V350H330L330 340H320V330H310L310 320L300 320V310L290 310L290 300L280 300L280 290L270 290L270 280Z" fill="#FFF2E8"/>
<path d="M210 220V230H120V220H110V210H100V200H90V190H80V180H70V170H60V160H50V150H40V140H130V150H140V160H150V170H160V180H170V190H180V200H190V210H200V220H210Z" fill="#FFF2E8"/>
<path d="M270 210H260L260 120H270L270 110H280L280 100H290V90L300 90V80H310L310 70L320 70V60H330V50H340V40L350 40L350 130H340V140H330V150H320V160H310L310 170H300V180H290L290 190H280V200H270V210Z" fill="#FFF2E8"/>
<path d="M280 270L280 260L370 260V270L380 270V280H390V290L400 290V300H410V310H420V320H430V330H440V340H450V350L360 350V340H350V330H340V320H330V310H320V300H310V290H300L300 280L290 280L290 270L280 270Z" fill="#FFF2E8"/>
<path d="M220 280L230 280L230 370H220V380H210V390H200V400L190 400L190 410H180V420H170L170 430L160 430V440H150L150 450H140L140 360H150L150 350H160L160 340H170V330L180 330V320H190L190 310L200 310V300H210V290L220 290V280Z" fill="#FFF2E8"/>
</g>
<defs>
<clipPath id="clip0_2026_1125">
<rect width="490" height="490" fill="white"/>
</clipPath>
</defs>
</svg>
