<svg width="150" height="150" viewBox="0 0 150 150" fill="none" xmlns="http://www.w3.org/2000/svg">
<g clip-path="url(#clip0_2333_2254)">
<path d="M41.625 82.9448L55.862 122.351C55.862 122.351 57.642 126.038 59.548 126.038C61.454 126.038 89.803 96.5458 89.803 96.5458L121.328 35.6558L42.133 72.7728L41.625 82.9448Z" fill="#C8DAEA"/>
<path d="M60.5016 93.0508L57.7686 122.097C57.7686 122.097 56.6246 130.997 65.5226 122.097C74.4206 113.197 82.9376 106.334 82.9376 106.334" fill="#A9C6D8"/>
<path d="M41.8826 84.3508L12.5966 74.8088C12.5966 74.8088 9.09659 73.3888 10.2236 70.1688C10.4556 69.5048 10.9236 68.9398 12.3236 67.9688C18.8126 63.4458 132.43 22.6088 132.43 22.6088C132.43 22.6088 135.638 21.5278 137.53 22.2468C137.998 22.3917 138.419 22.6583 138.75 23.0193C139.081 23.3804 139.311 23.823 139.415 24.3018C139.619 25.1474 139.705 26.0175 139.669 26.8868C139.66 27.6388 139.569 28.3358 139.5 29.4288C138.808 40.5938 118.1 123.922 118.1 123.922C118.1 123.922 116.861 128.798 112.422 128.965C111.331 129 110.244 128.815 109.226 128.421C108.208 128.028 107.28 127.433 106.497 126.673C97.7856 119.18 67.6776 98.9458 61.0246 94.4958C60.8745 94.3935 60.7481 94.2603 60.654 94.105C60.5598 93.9497 60.5 93.7761 60.4786 93.5958C60.3856 93.1268 60.8956 92.5458 60.8956 92.5458C60.8956 92.5458 113.322 45.9458 114.717 41.0538C114.825 40.6748 114.417 40.4878 113.869 40.6538C110.387 41.9348 50.0246 80.0538 43.3626 84.2608C42.883 84.4059 42.3762 84.4367 41.8826 84.3508Z" fill="white"/>
</g>
<defs>
<clipPath id="clip0_2333_2254">
<rect width="129.677" height="106.969" fill="white" transform="translate(10 22)"/>
</clipPath>
</defs>
</svg>
